<svg width="24px" viewBox="0 0 113 132" fill="none" xmlns="http://www.w3.org/2000/svg"> 
    <path d="M13.778 9.03755e-06C7.58767 2.9372e-05 0.199219 4.19356 0.199219 13.0796C0.199219 21.9656 6.98861 26.1592 13.778 26.1592H71.4879C71.4879 26.1592 85.8654 28.5555 85.8654 42.933C85.8654 57.3104 71.4879 59.7067 71.4879 59.7067H54.9137C46.7265 59.7067 39.9371 63.7005 39.9371 72.7863C39.9371 81.872 47.725 85.8658 54.9137 85.8658H71.4879C87.8623 85.8658 112.224 71.0891 112.224 42.933C112.224 14.7769 87.8623 9.03755e-06 71.4879 9.03755e-06H13.778Z" fill="#795CED"></path> <path d="M8.33206e-08 52.1187V119.214C0 125.005 6.19035 131.994 13.1794 131.994C20.1685 131.994 26.3589 126.802 26.3589 119.214V52.1187C26.3589 45.1296 20.7676 39.3386 13.1794 39.3386C5.59128 39.3386 8.33206e-08 46.3277 8.33206e-08 52.1187Z" fill="#459BD5"></path> 
</svg>